# xmcd
#
# Track frame offsets:
#	150
#	17792
#	30057
#	47260
#	65460
#	73090
#	87687
#	121547
#	135615
#
# Disc length: 2135 seconds
#
# Revision: 0
# Processed by: cddbd v1.5.1PL2 Copyright (c) Steve Scherf et al.
# Submitted via: dBpowerAMP V4.0
#
DISCID=6b085509
DTITLE=Marvin Gaye - What's Going On [1994 Remaster]
DYEAR=1971
DGENRE=R&B
TTITLE0=What's Going On
TTITLE1=What's Happening Brother
TTITLE2=Flyin' High (In The Friendly Sky)
TTITLE3=Save The Children
TTITLE4=God Is Love
TTITLE5=Mercy Mercy Me (The Ecology)
TTITLE6=Right On
TTITLE7=Wholy Holy
TTITLE8=Inner City Blues (Make Me Wanna Holler)
EXTD=
EXTT0=
EXTT1=
EXTT2=
EXTT3=
EXTT4=
EXTT5=
EXTT6=
EXTT7=
EXTT8=
PLAYORDER=
